<svg width="244" height="34" viewBox="0 0 244 34" fill="none" xmlns="http://www.w3.org/2000/svg">
<path d="M33.0417 16.9679C33.0417 7.57728 40.7889 0 50.4884 0C60.2532 0 67.9998 7.57728 67.9998 16.9679C67.9998 26.2933 60.2532 34 50.4884 34C40.7889 34 33.0417 26.2286 33.0417 16.9679ZM59.6674 16.9679C59.6674 12.3054 55.5659 8.15967 50.4884 8.15967C45.4757 8.15967 41.4398 12.3054 41.4398 16.9679C41.4398 21.6955 45.5409 25.8403 50.4884 25.8403C55.5659 25.8403 59.6674 21.6955 59.6674 16.9679Z" fill="#242422"/>
<path d="M208.31 17.2262C208.31 6.92922 216.739 0 224.383 0C229.611 0 232.617 1.55399 234.642 4.59872L235.426 0.583357H243.267V33.3529H235.426L234.446 29.9846C232.159 32.446 229.284 34 224.449 34C216.804 34 208.31 27.3943 208.31 17.2262ZM234.969 17.1615C234.969 12.176 230.852 8.15967 225.756 8.15967C220.725 8.15967 216.674 12.2407 216.674 17.2924C216.674 21.825 220.79 25.905 225.756 25.905C230.917 25.8403 234.969 21.7603 234.969 17.1615Z" fill="#242422"/>
<path d="M198.911 4.58461V0.828079H190.591V33.042H198.911V15.661C198.911 10.441 201.451 7.7033 205.959 7.7033C206.277 7.7033 206.532 7.7033 206.785 7.76704L208.309 0C203.991 0.063736 200.879 1.52772 198.911 4.58461Z" fill="#242422"/>
<path d="M113.926 4.58461V0.828079H105.351L105.417 33.042H113.992L113.926 15.661C113.926 10.441 116.544 7.7033 121.127 7.7033C121.454 7.7033 121.715 7.7033 121.978 7.76704L123.549 0C119.097 0.063736 115.89 1.52772 113.926 4.58461Z" fill="#242422"/>
<path d="M71.3513 20.5392V0.477905H79.7241V19.5033C79.7241 23.7094 82.0254 26.1684 86.0519 26.1684C90.5261 26.1684 93.1471 23.3864 93.1471 18.0802V0.477905H101.52V33.2217H93.1471V29.4048C91.1654 32.5103 87.9699 33.9987 83.5594 33.9987C76.0172 34.0634 71.3513 28.5631 71.3513 20.5392Z" fill="#242422"/>
<path d="M153.717 16.9361C153.717 7.75671 160.344 -0.0643102 170.738 0.000398695C180.417 0.000398695 187.238 7.75672 187.238 16.8058C187.238 17.7112 187.173 18.6809 187.043 19.5216L162.033 19.4569C163.008 23.3997 166.255 26.1788 171.128 26.2435C174.115 26.2435 177.299 25.1445 179.248 22.6879L185.03 27.3426C182.041 31.5433 176.779 33.9998 171.193 33.9998C161.318 33.8709 153.717 26.5019 153.717 16.9361ZM178.729 13.5747C178.273 10.2774 174.766 7.692 170.738 7.692C166.776 7.692 163.592 10.0191 162.357 13.51L178.729 13.5747Z" fill="#242422"/>
<path d="M123.549 26.2729L131.101 22.3451C132.338 25.0492 134.877 26.5945 138.391 26.5945C141.647 26.5945 142.884 25.564 142.884 24.1477C142.884 18.9315 124.916 22.0877 124.916 10.1097C124.916 3.47776 130.776 0 138.001 0C143.469 0 148.352 2.38256 151.021 6.89078L143.534 10.8186C142.429 8.62918 140.345 7.40554 137.676 7.40554C135.072 7.40554 133.835 8.30758 133.835 9.7881C133.835 14.8753 151.803 11.6549 151.803 23.8261C151.803 30.1364 146.595 34 138.196 34C131.036 33.9358 126.023 31.6174 123.549 26.2729Z" fill="#242422"/>
<path d="M0 16.7928C0 7.47028 7.68223 0 17.3011 0C23.4984 0 28.8568 3.06567 31.9556 7.66149L24.7252 11.8126C23.0465 9.51422 20.3998 7.98211 17.3011 7.98211C12.3302 7.98211 8.32776 12.068 8.32776 16.7291C8.32776 21.3891 12.3947 25.475 17.3011 25.475C20.5289 25.475 23.3694 23.8155 24.9188 21.3254L32.0845 25.5388C29.0505 30.3277 23.5629 33.5209 17.3011 33.5209C7.68223 33.5846 0 25.9231 0 16.7928Z" fill="#242422"/>
</svg>
