<svg width="287" height="34" viewBox="0 0 287 34" fill="none" xmlns="http://www.w3.org/2000/svg">
<path d="M4.00592 5.1491C3.48992 3.5484 3.01581 2.514 2.42079 2.10574C1.9443 1.79087 1.11103 1.69629 0.714745 1.69629C0.277757 1.69629 0 1.66517 0 1.31917C0 1.03902 0.359168 0.944434 0.952992 0.944434C3.21096 0.944434 5.55034 1.07014 5.94902 1.07014C6.3441 1.07014 8.20938 0.944434 10.7056 0.944434C11.3006 0.944434 11.6179 1.07014 11.6179 1.31917C11.6179 1.66517 11.2611 1.69629 10.8265 1.69629C10.5093 1.69629 10.0723 1.69629 9.755 1.88545C9.35992 2.04229 9.27851 2.35716 9.27851 2.82767C9.27851 3.39157 9.71669 4.83662 10.2315 6.78331C10.9438 9.60757 14.9498 22.6035 15.7435 25.0207H15.8609L24.1888 2.66964C24.6653 1.44368 24.9035 1.10007 25.2603 1.10007C25.7344 1.10007 25.9331 1.75735 26.4886 3.14135L35.4116 24.7058H35.572C36.3239 21.8504 39.7731 10.5175 41.2804 5.4939C41.5581 4.49062 41.6791 3.61066 41.6791 2.98451C41.6791 2.32484 41.3199 1.6951 39.6174 1.6951C39.2188 1.6951 38.9015 1.56939 38.9015 1.31797C38.9015 1.03782 39.2583 0.943237 39.8916 0.943237C42.152 0.943237 43.9789 1.06895 44.374 1.06895C44.6518 1.06895 46.5147 0.943237 47.9022 0.943237C48.3787 0.943237 48.696 1.03782 48.696 1.28684C48.696 1.56939 48.4578 1.6951 48.101 1.6951C47.664 1.6951 47.069 1.75855 46.5949 1.91539C45.5629 2.32364 45.0864 4.01891 44.1753 6.46844C42.1927 11.8991 37.7126 25.5235 35.6115 31.9574C35.135 33.4635 34.8956 33.9987 34.3401 33.9987C33.945 33.9987 33.6672 33.4635 33.0327 31.8951L24.111 10.3941H23.99C23.1987 12.5611 17.4879 27.7515 15.6238 31.7072C14.8324 33.4647 14.5942 33.9999 14.0782 33.9999C13.6819 33.9999 13.4437 33.5282 13.1276 32.3992" fill="#242422"/>
<path d="M59.7979 13.3741C59.7979 6.87799 59.7979 5.65203 59.7201 4.30275C59.6411 2.82777 59.2855 2.13577 57.8572 1.85323C57.5399 1.75865 56.7857 1.69639 56.1907 1.69639C55.7142 1.69639 55.4747 1.63414 55.4747 1.31926C55.4747 1.03911 55.7525 0.944532 56.4289 0.944532C58.6893 0.944532 61.3854 1.07024 62.6138 1.07024C63.9619 1.07024 72.5292 1.07024 73.3194 1.03911C74.1527 0.944532 74.8279 0.849952 75.1847 0.756568C75.381 0.72544 75.6588 0.599731 75.8575 0.599731C76.0575 0.599731 76.0958 0.756568 76.0958 0.976858C76.0958 1.28814 75.897 1.79217 75.7785 3.76999C75.739 4.21057 75.6576 6.0938 75.5403 6.59664C75.5007 6.81693 75.4217 7.06595 75.144 7.06595C74.8267 7.06595 74.7453 6.88038 74.7453 6.47093C74.7453 6.18839 74.7058 5.43413 74.4675 4.93369C74.1898 4.14711 73.7552 3.64428 71.6122 3.39286C70.8603 3.29828 66.3779 3.2037 65.5051 3.2037C65.3064 3.2037 65.2273 3.32941 65.2273 3.64428V14.5055C65.2273 14.7881 65.2669 14.9772 65.5051 14.9772C66.4581 14.9772 71.3727 14.9772 72.3652 14.8826C73.3972 14.7881 74.0317 14.6624 74.4268 14.2565C74.7441 13.9105 74.9033 13.6902 75.1416 13.6902C75.2984 13.6902 75.4193 13.7848 75.4193 14.0362C75.4193 14.2876 75.2206 14.976 75.0614 17.1741C74.9823 18.023 74.9045 19.7494 74.9045 20.0319C74.9045 20.3755 74.9045 20.8472 74.5059 20.8472C74.2281 20.8472 74.1491 20.6904 74.1491 20.4701C74.1096 20.0331 74.1096 19.498 73.9503 18.9329C73.7528 18.0553 73.159 17.4268 71.5714 17.2376C70.7382 17.1741 66.4976 17.1119 65.4644 17.1119C65.2645 17.1119 65.2261 17.2998 65.2261 17.5513V20.9418C65.2261 22.3857 65.1483 26.3413 65.2261 27.5984C65.3052 30.5472 65.9804 31.208 70.3419 31.208C71.4912 31.208 73.2763 31.208 74.3861 30.6729C75.4972 30.17 76.0132 29.2613 76.3304 27.5038C76.4082 27.0321 76.4873 26.8753 76.8045 26.8753C77.1218 26.8753 77.1218 27.2213 77.1218 27.6295C77.1218 28.6328 76.8045 31.5516 76.5699 32.4005C76.2921 33.5294 75.8946 33.5294 74.27 33.5294C67.7655 33.5294 64.9101 33.2493 62.372 33.2493C61.3819 33.2493 58.6857 33.3726 56.9808 33.3726C56.4253 33.3726 56.1081 33.2493 56.1081 32.9668C56.1081 32.7465 56.2649 32.6208 56.7821 32.6208C57.4561 32.6208 57.971 32.5262 58.3277 32.4316C59.2005 32.2748 59.3992 31.3337 59.598 30.0766C59.7943 28.2868 59.7943 24.8974 59.7943 20.9418" fill="#242422"/>
<path d="M89.9751 32.8698C89.3023 32.5873 89.1418 32.367 89.1418 31.426C89.1418 29.0399 89.3418 26.4647 89.3801 25.7751C89.4196 25.1465 89.5369 24.6748 89.8961 24.6748C90.2912 24.6748 90.3307 25.0519 90.3307 25.3979C90.3307 25.9606 90.4899 26.8729 90.6863 27.596C91.6393 30.7651 94.1762 31.9264 96.834 31.9264C100.719 31.9264 102.584 29.3224 102.584 27.031C102.584 24.9274 101.947 22.9173 98.3796 20.1541L96.397 18.6156C91.6788 14.9438 90.0529 11.9303 90.0529 8.44641C90.0529 3.73652 94.0193 0.347168 99.9684 0.347168C102.782 0.347168 104.566 0.755422 105.677 1.07029C106.075 1.16487 106.272 1.28819 106.272 1.57073C106.272 2.13702 106.115 3.39171 106.115 6.7212C106.115 7.69335 105.994 8.00822 105.638 8.00822C105.361 8.00822 105.204 7.7568 105.204 7.25397C105.204 6.87924 105.005 5.52757 104.093 4.42971C103.459 3.612 102.228 2.32618 99.4141 2.32618C96.2414 2.32618 94.2983 4.14716 94.2983 6.7212C94.2983 8.69902 95.2884 10.2051 98.8597 12.9037L100.049 13.8148C105.204 17.8027 107.106 20.6892 107.106 24.7694C107.106 27.25 106.156 30.2 103.062 32.2413C100.921 33.5894 98.5006 33.9988 96.2426 33.9988C93.7428 33.9988 91.838 33.6851 89.9751 32.8698Z" fill="#242422"/>
<path d="M128.083 20.9405C128.083 26.4334 128.083 29.3858 128.994 30.1688C129.709 30.7973 130.82 31.1122 134.189 31.1122C136.449 31.1122 138.116 31.081 139.185 29.9173C139.701 29.3535 140.217 28.1598 140.334 27.3445C140.376 26.9362 140.455 26.6848 140.811 26.6848C141.088 26.6848 141.128 26.9051 141.128 27.408C141.128 27.8773 140.85 31.1122 140.493 32.3669C140.216 33.3103 140.017 33.527 137.798 33.527C131.611 33.527 128.794 33.2468 125.305 33.2468C124.315 33.2468 121.619 33.3701 119.875 33.3701C119.319 33.3701 119.041 33.2468 119.041 32.9643C119.041 32.744 119.198 32.6183 119.715 32.6183C120.349 32.6183 120.865 32.5237 121.261 32.4291C122.134 32.2723 122.333 31.3313 122.492 30.0742C122.728 28.2843 122.728 24.895 122.728 20.9393V13.3741C122.728 6.87791 122.728 5.65195 122.65 4.30268C122.571 2.8277 122.215 2.1357 120.787 1.85315C120.47 1.75857 119.954 1.69632 119.359 1.69632C118.922 1.69632 118.644 1.63406 118.644 1.31919C118.644 1.03904 118.961 0.944458 119.597 0.944458C121.619 0.944458 124.315 1.07017 125.465 1.07017C126.497 1.07017 129.627 0.944458 131.294 0.944458C131.927 0.944458 132.205 1.03904 132.205 1.31919C132.205 1.63406 131.967 1.69632 131.453 1.69632C130.977 1.69632 130.263 1.75977 129.748 1.85315C128.598 2.04232 128.242 2.79657 128.161 4.30268C128.083 5.65195 128.083 6.87791 128.083 13.3741" fill="#242422"/>
<path d="M154.096 13.3741C154.096 6.87799 154.096 5.65203 154.018 4.30275C153.939 2.82777 153.584 2.13577 152.152 1.85323C151.837 1.75865 151.083 1.69639 150.491 1.69639C150.015 1.69639 149.773 1.63414 149.773 1.31926C149.773 1.03911 150.05 0.944532 150.726 0.944532C152.985 0.944532 155.684 1.07024 156.873 1.07024C158.26 1.07024 166.784 1.07024 167.619 1.03911C168.451 0.944532 169.127 0.849952 169.484 0.756568C169.683 0.72544 169.919 0.599731 170.159 0.599731C170.353 0.599731 170.395 0.756568 170.395 0.976858C170.395 1.28814 170.195 1.79217 170.074 3.76999C170.039 4.21057 169.918 6.0938 169.84 6.59664C169.803 6.81693 169.719 7.06595 169.405 7.06595C169.127 7.06595 169.048 6.88038 169.048 6.47093C169.048 6.18839 169.007 5.43413 168.771 4.93369C168.494 4.14711 168.054 3.64428 165.915 3.39286C165.161 3.29828 160.682 3.2037 159.806 3.2037C159.607 3.2037 159.491 3.32941 159.491 3.64428V14.5055C159.491 14.7881 159.57 14.9772 159.806 14.9772C160.76 14.9772 165.673 14.9772 166.67 14.8826C167.696 14.7881 168.33 14.6624 168.729 14.2565C169.048 13.9105 169.204 13.6902 169.404 13.6902C169.603 13.6902 169.719 13.7848 169.719 14.0362C169.719 14.2876 169.525 14.976 169.362 17.1741C169.284 18.023 169.204 19.7494 169.204 20.0319C169.204 20.3755 169.204 20.8472 168.807 20.8472C168.529 20.8472 168.45 20.6904 168.45 20.4701C168.372 20.0331 168.372 19.498 168.251 18.9329C168.052 18.0553 167.46 17.4268 165.872 17.2376C165.04 17.1741 160.796 17.1119 159.769 17.1119C159.57 17.1119 159.491 17.2998 159.491 17.5513V20.9418C159.491 22.3857 159.449 26.3413 159.491 27.5984C159.607 30.5472 160.282 31.208 164.647 31.208C165.758 31.208 167.581 31.208 168.692 30.6729C169.803 30.17 170.315 29.2613 170.63 27.5038C170.714 27.0321 170.793 26.8753 171.106 26.8753C171.426 26.8753 171.426 27.2213 171.426 27.6295C171.426 28.6328 171.106 31.5516 170.871 32.4005C170.594 33.5294 170.195 33.5294 168.571 33.5294C162.069 33.5294 159.214 33.2493 156.673 33.2493C155.684 33.2493 152.985 33.3726 151.282 33.3726C150.726 33.3726 150.408 33.2493 150.408 32.9668C150.408 32.7465 150.57 32.6208 151.083 32.6208C151.758 32.6208 152.272 32.5262 152.628 32.4316C153.502 32.2748 153.702 31.3337 153.896 30.0766C154.096 28.2868 154.096 24.8974 154.096 20.9418" fill="#242422"/>
<path d="M191.451 22.2575C191.451 19.9672 191.016 18.9938 190.461 17.7703C190.141 17.0783 184.395 7.62975 182.886 5.40051C181.817 3.79982 180.743 2.73309 179.952 2.26138C179.396 1.97884 178.642 1.6951 178.129 1.6951C177.809 1.6951 177.496 1.63284 177.496 1.31797C177.496 1.06895 177.81 0.943237 178.328 0.943237C179.082 0.943237 182.295 1.06895 183.719 1.06895C184.632 1.06895 186.376 0.943237 188.32 0.943237C188.755 0.943237 188.954 1.06895 188.954 1.31797C188.954 1.56939 188.639 1.63284 188.005 1.78968C187.607 1.88426 187.408 2.23026 187.408 2.57506C187.408 2.92106 187.607 3.4215 187.922 4.01891C188.519 5.30473 194.543 15.6655 195.22 16.858C195.654 15.8236 201.052 6.37506 201.643 5.05451C202.078 4.11469 202.24 3.39157 202.24 2.82767C202.24 2.38709 202.078 1.91658 201.366 1.75855C200.974 1.66397 200.575 1.56939 200.575 1.31797C200.575 1.03782 200.811 0.943237 201.329 0.943237C202.718 0.943237 204.101 1.06895 205.333 1.06895C206.287 1.06895 209.142 0.943237 209.933 0.943237C210.409 0.943237 210.724 1.03782 210.724 1.28684C210.724 1.56939 210.367 1.6951 209.892 1.6951C209.457 1.6951 208.666 1.88426 207.989 2.23026C207.119 2.66964 206.643 3.17008 205.69 4.33378C204.265 6.06018 198.276 16.1372 197.48 17.9894C196.847 19.5278 196.847 20.8447 196.847 22.2563V25.7737C196.847 26.4633 196.847 28.2831 196.968 30.073C197.046 31.33 197.443 32.2699 198.754 32.4279C199.345 32.5225 200.3 32.6171 200.891 32.6171C201.368 32.6171 201.566 32.7428 201.566 32.9631C201.566 33.2456 201.247 33.3689 200.654 33.3689C197.957 33.3689 195.263 33.2456 194.11 33.2456C193.041 33.2456 190.344 33.3689 188.756 33.3689C188.121 33.3689 187.808 33.3091 187.808 32.9631C187.808 32.7428 188.007 32.6171 188.478 32.6171C189.076 32.6171 189.589 32.5225 189.988 32.4279C190.858 32.2711 191.219 31.33 191.298 30.073C191.455 28.2831 191.455 26.4633 191.455 25.7737" fill="#242422"/>
<path d="M231.265 20.0308C231.499 20.0308 231.541 19.9051 231.499 19.7794L227.618 9.16716C227.576 9.01033 227.54 8.79243 227.419 8.79243C227.261 8.79243 227.177 9.01033 227.142 9.16716L223.218 19.7471C223.176 19.9039 223.218 20.0296 223.375 20.0296L231.265 20.0308ZM222.5 22.1954C222.3 22.1954 222.222 22.2588 222.143 22.5414L219.806 28.6628C219.367 29.7295 219.173 30.7663 219.173 31.2692C219.173 32.0522 219.565 32.6184 220.876 32.6184H221.51C222.023 32.6184 222.185 32.713 222.185 32.9644C222.185 33.3104 221.907 33.3703 221.431 33.3703C220.084 33.3703 218.219 33.247 216.909 33.247C216.433 33.247 214.053 33.3703 211.833 33.3703C211.277 33.3703 211 33.3104 211 32.9644C211 32.713 211.199 32.6184 211.519 32.6184C211.912 32.6184 212.509 32.5873 212.866 32.5239C214.851 32.2724 215.642 30.7975 216.513 28.6616L227.262 1.69527C227.776 0.472904 228.054 0 228.488 0C228.886 0 229.122 0.377126 229.561 1.3804C230.588 3.73535 237.452 21.2532 240.186 27.7493C241.81 31.6104 243.079 32.2389 243.953 32.4281C244.628 32.5849 245.263 32.6172 245.775 32.6172C246.132 32.6172 246.331 32.6484 246.331 32.9632C246.331 33.3092 245.933 33.3691 244.352 33.3691C242.8 33.3691 239.673 33.3691 236.262 33.3092C235.466 33.2458 234.951 33.2458 234.951 32.9632C234.951 32.7118 235.151 32.6172 235.544 32.5861C235.863 32.4915 236.141 32.0833 235.941 31.5804L232.53 22.4767C232.409 22.2564 232.294 22.1942 232.096 22.1942H222.5V22.1954Z" fill="#242422"/>
<path d="M258.666 27.5647C258.743 30.8918 259.299 32.0208 260.175 32.3034C260.888 32.5859 261.721 32.6182 262.391 32.6182C262.868 32.6182 263.11 32.7128 263.11 32.9642C263.11 33.3102 262.712 33.3701 262.115 33.3701C259.343 33.3701 257.635 33.2468 256.801 33.2468C256.409 33.2468 254.423 33.3701 252.165 33.3701C251.609 33.3701 251.21 33.3414 251.21 32.9642C251.21 32.7128 251.488 32.6182 251.924 32.6182C252.48 32.6182 253.234 32.5871 253.831 32.398C254.978 32.052 255.136 30.7973 255.178 27.0607L255.576 1.66395C255.576 0.817509 255.692 0.220093 256.131 0.220093C256.604 0.220093 256.964 0.754056 257.714 1.53824C258.232 2.10453 264.733 9.10351 271.001 15.3195C273.934 18.2396 279.724 24.4232 280.436 25.114H280.677L280.237 5.83868C280.201 3.19999 279.803 2.38588 278.769 1.97642C278.136 1.69388 277.103 1.69388 276.511 1.69388C275.992 1.69388 275.836 1.56817 275.836 1.31675C275.836 0.973148 276.271 0.94202 276.947 0.94202C279.168 0.94202 281.232 1.06773 282.144 1.06773C282.616 1.06773 284.246 0.94202 286.347 0.94202C286.902 0.94202 287.337 0.973148 287.337 1.31675C287.337 1.56817 287.06 1.69388 286.545 1.69388C286.106 1.69388 285.791 1.69388 285.278 1.85072C284.047 2.16559 283.726 3.07667 283.69 5.49268L283.214 32.5847C283.214 33.5257 283.015 33.9029 282.658 33.9029C282.183 33.9029 281.668 33.4312 281.191 32.963C278.493 30.3878 272.982 24.768 268.544 20.3419C263.86 15.6978 259.067 10.3295 258.311 9.51297H258.19" fill="#242422"/>
</svg>
