<svg width="83" height="100" viewBox="0 0 83 100" fill="none" xmlns="http://www.w3.org/2000/svg">
<path d="M82.9999 0H0.646973V64.7059L41.8234 100L82.9999 64.7059V0Z" fill="#242422"/>
<path d="M50.8581 57.1255H49.3811L42.3247 39.9768L36.0068 57.1255H34.6119L23.7811 31.3614L20.4991 30.8691V29.8845H31.8222V30.8691L29.4427 31.5255L37.0734 50.5614L41.5863 38.2537L38.6324 31.3614L36.0068 30.8691V29.8845H47.9042V30.8691L44.2119 31.5255L51.8427 50.5614L58.735 32.264L54.4683 30.8691V29.9665H63.3298V30.8691L60.1298 32.0999L50.8581 57.1255Z" fill="#FFE65F"/>
<path d="M50.8581 57.1255V57.6255H51.206L51.3269 57.2992L50.8581 57.1255ZM49.3811 57.1255L48.9187 57.3158L49.0462 57.6255H49.3811V57.1255ZM42.3247 39.9768L42.7871 39.7865L42.299 38.6003L41.8555 39.8039L42.3247 39.9768ZM36.0068 57.1255V57.6255H36.3554L36.4759 57.2984L36.0068 57.1255ZM34.6119 57.1255L34.151 57.3193L34.2797 57.6255H34.6119V57.1255ZM23.7811 31.3614L24.2421 31.1676L24.1332 30.9086L23.8553 30.8669L23.7811 31.3614ZM20.4991 30.8691H19.9991V31.2997L20.4249 31.3636L20.4991 30.8691ZM20.4991 29.8845V29.3845H19.9991V29.8845H20.4991ZM31.8222 29.8845H32.3222V29.3845H31.8222V29.8845ZM31.8222 30.8691L31.9551 31.3511L32.3222 31.2498V30.8691H31.8222ZM29.4427 31.5255L29.3097 31.0435L28.7704 31.1923L28.9786 31.7115L29.4427 31.5255ZM37.0734 50.5614L36.6093 50.7474L37.0942 51.9571L37.5429 50.7335L37.0734 50.5614ZM41.5863 38.2537L42.0557 38.4258L42.1241 38.2393L42.0458 38.0568L41.5863 38.2537ZM38.6324 31.3614L39.092 31.1644L38.9869 30.9191L38.7246 30.87L38.6324 31.3614ZM36.0068 30.8691H35.5068V31.2841L35.9146 31.3605L36.0068 30.8691ZM36.0068 29.8845V29.3845H35.5068V29.8845H36.0068ZM47.9042 29.8845H48.4042V29.3845H47.9042V29.8845ZM47.9042 30.8691L47.9917 31.3614L48.4042 31.288V30.8691H47.9042ZM44.2119 31.5255L44.1244 31.0332L43.519 31.1408L43.7478 31.7115L44.2119 31.5255ZM51.8427 50.5614L51.3786 50.7474L51.8572 51.9414L52.3106 50.7377L51.8427 50.5614ZM58.735 32.264L59.2029 32.4402L59.3871 31.9511L58.8903 31.7887L58.735 32.264ZM54.4683 30.8691H53.9683V31.2317L54.3129 31.3443L54.4683 30.8691ZM54.4683 29.9665V29.4665H53.9683V29.9665H54.4683ZM63.3298 29.9665H63.8298V29.4665H63.3298V29.9665ZM63.3298 30.8691L63.5093 31.3358L63.8298 31.2125V30.8691H63.3298ZM60.1298 32.0999L59.9504 31.6332L59.7395 31.7143L59.661 31.9262L60.1298 32.0999ZM50.8581 56.6255H49.3811V57.6255H50.8581V56.6255ZM49.8435 56.9352L42.7871 39.7865L41.8623 40.167L48.9187 57.3158L49.8435 56.9352ZM41.8555 39.8039L35.5376 56.9527L36.4759 57.2984L42.7939 40.1496L41.8555 39.8039ZM36.0068 56.6255H34.6119V57.6255H36.0068V56.6255ZM35.0728 56.9317L24.2421 31.1676L23.3202 31.5552L34.151 57.3193L35.0728 56.9317ZM23.8553 30.8669L20.5732 30.3746L20.4249 31.3636L23.707 31.8559L23.8553 30.8669ZM20.9991 30.8691V29.8845H19.9991V30.8691H20.9991ZM20.4991 30.3845H31.8222V29.3845H20.4991V30.3845ZM31.3222 29.8845V30.8691H32.3222V29.8845H31.3222ZM31.6892 30.3871L29.3097 31.0435L29.5756 32.0075L31.9551 31.3511L31.6892 30.3871ZM28.9786 31.7115L36.6093 50.7474L37.5375 50.3754L29.9068 31.3395L28.9786 31.7115ZM37.5429 50.7335L42.0557 38.4258L41.1168 38.0816L36.604 50.3893L37.5429 50.7335ZM42.0458 38.0568L39.092 31.1644L38.1728 31.5584L41.1267 38.4507L42.0458 38.0568ZM38.7246 30.87L36.0989 30.3777L35.9146 31.3605L38.5403 31.8528L38.7246 30.87ZM36.5068 30.8691V29.8845H35.5068V30.8691H36.5068ZM36.0068 30.3845H47.9042V29.3845H36.0068V30.3845ZM47.4042 29.8845V30.8691H48.4042V29.8845H47.4042ZM47.8167 30.3768L44.1244 31.0332L44.2994 32.0178L47.9917 31.3614L47.8167 30.3768ZM43.7478 31.7115L51.3786 50.7474L52.3068 50.3754L44.676 31.3395L43.7478 31.7115ZM52.3106 50.7377L59.2029 32.4402L58.2671 32.0877L51.3748 50.3852L52.3106 50.7377ZM58.8903 31.7887L54.6237 30.3938L54.3129 31.3443L58.5796 32.7392L58.8903 31.7887ZM54.9683 30.8691V29.9665H53.9683V30.8691H54.9683ZM54.4683 30.4665H63.3298V29.4665H54.4683V30.4665ZM62.8298 29.9665V30.8691H63.8298V29.9665H62.8298ZM63.1504 30.4024L59.9504 31.6332L60.3093 32.5665L63.5093 31.3358L63.1504 30.4024ZM59.661 31.9262L50.3892 56.9518L51.3269 57.2992L60.5987 32.2736L59.661 31.9262Z" fill="#FFE65F"/>
</svg>
